<svg width="61" height="60" viewBox="0 0 61 60" fill="none" xmlns="http://www.w3.org/2000/svg">
<path d="M30.1417 55.453C27.4083 57.0362 24.2283 57.9564 20.8047 57.9564C10.507 57.9564 2.15793 49.6073 2.15793 39.3096H20.8047C20.8047 46.2108 24.5531 52.246 30.1417 55.453Z" stroke="white" stroke-linecap="round" stroke-linejoin="round"/>
<path d="M58.112 39.3234C58.112 49.6211 49.7628 57.9702 39.4651 57.9702V39.3234C46.3664 39.3234 52.388 35.5751 55.6086 30C57.2053 32.7334 58.112 35.9269 58.112 39.3234Z" stroke="white" stroke-linecap="round" stroke-linejoin="round"/>
<path d="M39.4516 39.3237V57.9706C36.0687 57.9706 32.8752 57.0639 30.1282 55.4672C24.5396 52.2601 20.7913 46.2249 20.7913 39.3237H39.4381H39.4516Z" stroke="white" stroke-linecap="round" stroke-linejoin="round"/>
<path d="M39.4516 20.6631H20.8048V2.02979C24.2148 2.02979 27.3948 2.94995 30.1417 4.53317C35.7168 7.75374 39.4651 13.7754 39.4651 20.6631H39.4516Z" stroke="white" stroke-linecap="round" stroke-linejoin="round"/>
<path d="M20.8047 20.6629V39.3098H2.15793C2.15793 35.9268 3.06456 32.7333 4.66131 29.9864C7.86835 24.4113 13.9035 20.6494 20.8047 20.6494V20.6629Z" stroke="white" stroke-linecap="round" stroke-linejoin="round"/>
<path d="M20.8047 2.02979V20.6631C13.9035 20.6631 7.86835 24.4249 4.66131 30C3.07809 27.2666 2.15793 24.0731 2.15793 20.6631C2.15793 10.3789 10.507 2.02979 20.8047 2.02979Z" stroke="white" stroke-linecap="round" stroke-linejoin="round"/>
<path d="M58.1119 20.6631H39.4651C39.4651 13.7754 35.7168 7.75374 30.1417 4.53317C32.8751 2.93642 36.0686 2.02979 39.4651 2.02979C49.7628 2.02979 58.1119 10.3789 58.1119 20.6631Z" stroke="white" stroke-linecap="round" stroke-linejoin="round"/>
<path d="M58.1119 20.6631C58.1119 24.0596 57.2053 27.2531 55.6086 30C52.388 35.5751 46.3663 39.3234 39.4651 39.3234V20.6766H58.1119V20.6631Z" stroke="white" stroke-linecap="round" stroke-linejoin="round"/>
</svg>
