<svg width="18" height="19" viewBox="0 0 18 19" fill="none" xmlns="http://www.w3.org/2000/svg">
<g clip-path="url(#clip0_7_17)">
<path d="M11.2872 4.25C12.0198 4.39292 12.693 4.75119 13.2208 5.27895C13.7485 5.80671 14.1068 6.47995 14.2497 7.2125" stroke="white" stroke-linecap="round" stroke-linejoin="round"/>
<path d="M11.2872 1.25C12.8092 1.41908 14.2284 2.10063 15.3119 3.18276C16.3954 4.26488 17.0787 5.68326 17.2497 7.205" stroke="white" stroke-linecap="round" stroke-linejoin="round"/>
<path d="M16.4998 13.19V15.44C16.5009 15.6489 16.4583 15.8558 16.3747 16.0473C16.2911 16.2388 16.1683 16.4107 16.0144 16.5519C15.8604 16.6932 15.6786 16.8007 15.4806 16.8675C15.2827 16.9343 15.0729 16.959 14.8648 16.94C12.557 16.6892 10.3401 15.9006 8.39233 14.6375C6.5802 13.486 5.04383 11.9496 3.89233 10.1375C2.62481 8.1809 1.83601 5.95324 1.58983 3.635C1.57109 3.4276 1.59573 3.21857 1.6622 3.02121C1.72867 2.82386 1.83551 2.64251 1.9759 2.48871C2.1163 2.33491 2.28718 2.21203 2.47767 2.12789C2.66816 2.04375 2.87408 2.00019 3.08233 2H5.33233C5.69631 1.99641 6.04917 2.12531 6.32515 2.36265C6.60113 2.59999 6.78139 2.92958 6.83233 3.29C6.92758 4.01 7.10383 4.71725 7.35733 5.3975C7.45824 5.66594 7.48007 5.95768 7.42026 6.23816C7.36044 6.51863 7.22148 6.77608 7.01983 6.98L6.06733 7.9325C7.13502 9.81013 8.68969 11.3648 10.5673 12.4325L11.5198 11.48C11.7237 11.2783 11.9812 11.1394 12.2617 11.0796C12.5421 11.0197 12.8339 11.0416 13.1023 11.1425C13.7833 11.3967 14.4898 11.573 15.2098 11.6675C15.5742 11.7189 15.9069 11.9024 16.1447 12.1831C16.3826 12.4638 16.509 12.8222 16.4998 13.19Z" stroke="white" stroke-linecap="round" stroke-linejoin="round"/>
</g>
<defs>
<clipPath id="clip0_7_17">
<rect width="18" height="18" fill="white" transform="translate(-0.000244141 0.5)"/>
</clipPath>
</defs>
</svg>
