<svg width="58" height="60" viewBox="0 0 58 60" fill="none" xmlns="http://www.w3.org/2000/svg">
<path d="M20.3503 0C18.491 0 16.8517 0.994453 15.9085 2.53122C12.5033 8.0789 8.95659 11.3001 3.42365 11.9334C1.58849 12.1414 -0.0297479 13.636 0.000415054 15.6339C0.11191 22.7937 1.72711 45.6079 18.7076 58.4662C20.0607 59.4907 21.8476 60 23.4567 60H33.6782C35.2873 60 37.0743 59.4907 38.4273 58.4662C55.4112 45.6079 57.0258 22.7967 57.1407 15.6339C57.1709 13.6361 55.5526 12.1414 53.7175 11.9334C48.1848 11.3006 44.6408 8.07929 41.2326 2.53122C40.2894 0.994376 38.6501 0 36.7909 0H20.3503ZM20.3503 2.85669H36.791C37.2973 2.85669 38.5027 3.54676 38.798 4.02587C42.4261 9.9352 46.871 14.0244 53.395 14.7688C53.9103 14.8261 54.287 15.2178 54.2809 15.5855C54.1725 22.3867 52.4428 44.2735 36.7039 56.1883C36.1705 56.5921 34.4378 57.1435 33.6784 57.1435H23.4631C22.7067 57.1435 20.971 56.5921 20.4376 56.1883C4.69882 44.2735 2.9631 22.3903 2.85741 15.5917C2.85741 15.224 3.23108 14.8293 3.74634 14.772C10.2703 14.0277 14.7153 9.93852 18.3434 4.02904C18.6387 3.54991 19.8471 2.85985 20.3533 2.85985L20.3503 2.85669ZM28.5737 14.7113C20.6997 14.7113 14.2845 21.1238 14.2845 28.9982C14.2845 36.8726 20.7 43.2875 28.5737 43.2875C36.4477 43.2875 42.8576 36.8719 42.8576 28.9982C42.8576 21.1245 36.4481 14.7113 28.5737 14.7113ZM28.5737 17.571C34.9019 17.571 40.0002 22.6667 40.0002 28.9974C40.0002 35.3256 34.9045 40.427 28.5737 40.427C22.2456 40.427 17.1411 35.3283 17.1411 28.9974C17.1411 22.6693 22.2428 17.571 28.5737 17.571ZM34.242 24.306C33.9437 24.3512 33.6664 24.4898 33.4525 24.7007H33.4374L27.4378 30.6341L23.6138 26.8554C23.0503 26.2979 22.1433 26.3069 21.5888 26.8704C21.0373 27.4339 21.0433 28.3379 21.6068 28.8924L26.4373 33.6657C26.9948 34.2171 27.8898 34.2171 28.4473 33.6657L35.4474 26.7438C36.014 26.1894 36.02 25.2823 35.4655 24.7188C35.1461 24.3934 34.6881 24.2427 34.236 24.309L34.242 24.306Z" fill="white"/>
</svg>
