<svg width="60" height="60" viewBox="0 0 60 60" fill="none" xmlns="http://www.w3.org/2000/svg">
<path d="M57.0395 23.9141H54.2112C53.6173 21.5445 52.6824 19.2865 51.4211 17.1873L53.4233 15.1851C53.9819 14.6265 54.2876 13.8856 54.2876 13.0919C54.2876 12.301 53.9819 11.5571 53.4233 10.9986L49.0015 6.57678C47.846 5.42433 45.9704 5.42433 44.8149 6.57678L42.8127 8.57898C40.7135 7.32063 38.4555 6.38275 36.0859 5.78891V2.96061C36.0859 1.32887 34.757 0 33.1253 0H26.8748C25.243 0 23.9142 1.32887 23.9142 2.96061V5.78891C21.5445 6.3828 19.2866 7.31769 17.1874 8.57898L15.1852 6.57678C14.0327 5.42433 12.1541 5.42433 10.9986 6.57678L6.57678 10.9986C6.01818 11.5572 5.71244 12.2981 5.71244 13.0919C5.71244 13.8827 6.01821 14.6266 6.57678 15.1851L8.57898 17.1873C7.32062 19.2865 6.38275 21.5445 5.78891 23.9141H2.96061C1.32887 23.9141 0 25.243 0 26.8747V33.1252C0 34.757 1.32887 36.0858 2.96061 36.0858H5.78891C6.3828 38.4555 7.31769 40.7134 8.57898 42.8126L6.57678 44.8148C5.42433 45.9673 5.42433 47.846 6.57678 49.0014L10.9986 53.4232C11.5572 53.9818 12.2981 54.2876 13.0919 54.2876C13.8827 54.2876 14.6266 53.9818 15.1851 53.4232L17.1873 51.421C19.2865 52.6794 21.5445 53.6172 23.9141 54.2111V57.0394C23.9141 58.6711 25.243 60 26.8747 60H33.1252C34.757 60 36.0858 58.6711 36.0858 57.0394V54.2111C38.4555 53.6172 40.7134 52.6823 42.8126 51.421L44.8148 53.4232C45.3911 53.9995 46.1496 54.2876 46.9081 54.2876C47.6666 54.2876 48.4251 53.9994 49.0013 53.4232L53.4231 49.0014C54.5756 47.849 54.5756 45.9703 53.4231 44.8148L51.4209 42.8126C52.6793 40.7134 53.6172 38.4555 54.211 36.0858H57.0393C58.6711 36.0858 59.9999 34.757 59.9999 33.1252V26.8747C59.9999 25.243 58.6712 23.9141 57.0395 23.9141ZM58.5653 33.125C58.5653 33.9659 57.8803 34.6508 57.0395 34.6508H53.6496C53.629 34.6508 53.6085 34.6626 53.5879 34.6626C53.5379 34.6685 53.4908 34.6773 53.4438 34.692C53.3997 34.7038 53.3615 34.7185 53.3203 34.739C53.2792 34.7596 53.2439 34.7861 53.2057 34.8155C53.1704 34.8449 53.1381 34.8743 53.1086 34.9066C53.0792 34.9419 53.0557 34.9772 53.0322 35.0183C53.0087 35.0595 52.9881 35.1036 52.9734 35.1506C52.9675 35.1712 52.9528 35.1859 52.9469 35.2094C52.3589 37.8113 51.3358 40.2781 49.9069 42.5389C49.8952 42.5566 49.8952 42.5801 49.8834 42.5977C49.8599 42.6418 49.8452 42.6859 49.8334 42.733C49.8217 42.7771 49.8099 42.8212 49.807 42.8653C49.804 42.9123 49.807 42.9535 49.8099 43.0005C49.8158 43.0476 49.8217 43.0917 49.8364 43.1358C49.8481 43.1769 49.8687 43.2181 49.8893 43.2563C49.9128 43.3004 49.9363 43.3386 49.9687 43.3769C49.9834 43.3945 49.9893 43.4151 50.004 43.4298L52.403 45.8288C52.9969 46.4227 52.9969 47.39 52.403 47.9868L47.9812 52.4086C47.3873 53.0025 46.4201 53.0025 45.8232 52.4086L43.4242 50.0096C43.4095 49.9949 43.3889 49.989 43.3712 49.9743C43.333 49.942 43.2948 49.9184 43.2507 49.8949C43.2095 49.8743 43.1713 49.8538 43.1272 49.842C43.0831 49.8273 43.039 49.8214 42.9949 49.8155C42.9479 49.8097 42.9067 49.8067 42.8597 49.8126C42.8156 49.8155 42.7715 49.8273 42.7274 49.8391C42.6803 49.8508 42.6362 49.8685 42.5921 49.892C42.5715 49.9008 42.551 49.9037 42.5333 49.9155C40.2724 51.3443 37.8058 52.3675 35.2038 52.9555C35.1832 52.9614 35.1656 52.9761 35.145 52.982C35.098 52.9967 35.0568 53.0173 35.0127 53.0408C34.9716 53.0643 34.9363 53.0849 34.901 53.1143C34.8657 53.1437 34.8363 53.176 34.8069 53.2142C34.7775 53.2495 34.7511 53.2848 34.7305 53.326C34.7099 53.3671 34.6952 53.4053 34.6834 53.4494C34.6687 53.4965 34.6599 53.5406 34.654 53.5906C34.6511 53.6111 34.6423 53.6317 34.6423 53.6523V57.0421C34.6423 57.883 33.9572 58.568 33.1164 58.568H26.8659C26.0251 58.568 25.3401 57.883 25.3401 57.0421V53.6523C25.3401 53.6317 25.3283 53.6111 25.3283 53.5906C25.3254 53.5406 25.3136 53.4965 25.2989 53.4494C25.2872 53.4053 25.2725 53.3642 25.2519 53.326C25.2313 53.2848 25.2048 53.2495 25.1754 53.2142C25.146 53.179 25.1166 53.1466 25.0814 53.1143C25.0461 53.0849 25.0108 53.0614 24.9696 53.0408C24.9285 53.0173 24.8844 52.9967 24.8373 52.982C24.8168 52.9761 24.8021 52.9614 24.7785 52.9555C22.1766 52.3675 19.7099 51.3444 17.4461 49.9155C17.4285 49.9037 17.4049 49.9037 17.3873 49.892C17.3432 49.8685 17.2991 49.8538 17.252 49.842C17.2079 49.8302 17.1668 49.8214 17.1197 49.8155C17.0727 49.8126 17.0315 49.8155 16.9845 49.8185C16.9375 49.8244 16.8963 49.8302 16.8522 49.8449C16.8081 49.8596 16.7699 49.8773 16.7287 49.8979C16.6846 49.9214 16.6464 49.9449 16.6082 49.9772C16.5905 49.9919 16.57 49.9978 16.5553 50.0125L14.1591 52.4116C13.8739 52.6968 13.4888 52.8555 13.0801 52.8555C12.6715 52.8555 12.2893 52.6968 12.0011 52.4116L7.57934 47.9898C6.98545 47.3959 6.98545 46.4286 7.57934 45.8318L9.9784 43.4357C9.9931 43.421 9.99898 43.4004 10.0137 43.3827C10.046 43.3445 10.0695 43.3063 10.0931 43.2622C10.1136 43.221 10.1342 43.1828 10.146 43.1387C10.1607 43.0946 10.1666 43.0505 10.1724 43.0064C10.1783 42.9594 10.1813 42.9182 10.1754 42.8712C10.1724 42.8271 10.1607 42.783 10.1489 42.7389C10.1372 42.6918 10.1195 42.6477 10.096 42.6036C10.0872 42.583 10.0842 42.5625 10.0725 42.5448C8.64366 40.281 7.62051 37.8173 7.03246 35.2153C7.02658 35.1947 7.01188 35.1771 7.006 35.1565C6.9913 35.1095 6.97072 35.0683 6.9472 35.0242C6.92368 34.9831 6.9031 34.9478 6.8737 34.9125C6.8443 34.8772 6.81196 34.8478 6.77374 34.8184C6.73846 34.789 6.70318 34.7626 6.66202 34.742C6.62086 34.7214 6.58264 34.7067 6.53854 34.6949C6.4915 34.6802 6.4474 34.6714 6.39742 34.6655C6.37684 34.6626 6.35626 34.6538 6.33568 34.6538H2.94583C2.10497 34.6538 1.41999 33.9687 1.41999 33.1279V26.8774C1.41999 26.0366 2.10502 25.3516 2.94583 25.3516H6.33274H6.33569C6.42682 25.3516 6.51208 25.331 6.59441 25.2987C6.62087 25.2869 6.64439 25.2722 6.67085 25.2575C6.72083 25.231 6.76787 25.2016 6.81197 25.1634C6.83549 25.1399 6.85607 25.1164 6.87665 25.0899C6.91193 25.0488 6.94133 25.0076 6.96485 24.9606C6.98249 24.9282 6.99425 24.8959 7.00601 24.8606C7.01483 24.8371 7.02953 24.8194 7.03247 24.793C7.62048 22.1911 8.64359 19.7243 10.0725 17.4605C10.0843 17.4429 10.0843 17.4194 10.096 17.4017C10.1195 17.3576 10.1342 17.3135 10.1489 17.2665C10.1607 17.2224 10.1695 17.1812 10.1754 17.1371C10.1783 17.0901 10.1754 17.046 10.1725 17.0019C10.1666 16.9548 10.1607 16.9137 10.146 16.8696C10.1313 16.8255 10.1137 16.7873 10.0931 16.7461C10.0696 16.702 10.046 16.6638 10.0137 16.6256C9.99899 16.6079 9.99311 16.5873 9.97841 16.5726L7.57934 14.1736C7.29416 13.8884 7.1354 13.5033 7.1354 13.0946C7.1354 12.6859 7.29417 12.3037 7.57934 12.0156L12.0011 7.59378C12.595 6.9999 13.5623 6.9999 14.1591 7.59378L16.5582 9.99284C16.5611 9.99578 16.5641 9.99578 16.567 9.99872C16.6288 10.0575 16.6993 10.1016 16.7758 10.1369C16.7934 10.1457 16.811 10.1516 16.8287 10.1575C16.9051 10.1839 16.9874 10.2045 17.0698 10.2045C17.1491 10.2045 17.2315 10.1869 17.3079 10.1575C17.3314 10.1487 17.352 10.1398 17.3726 10.1281C17.399 10.1163 17.4255 10.1075 17.449 10.0928C19.7128 8.66397 22.1766 7.64083 24.7815 7.05278C24.8021 7.0469 24.8197 7.0322 24.8403 7.02632C24.8873 7.01162 24.9285 6.99104 24.9726 6.96752C25.0137 6.944 25.049 6.92048 25.0843 6.89402C25.1196 6.86462 25.149 6.83228 25.1784 6.797C25.2078 6.76172 25.2342 6.72644 25.2548 6.68527C25.2754 6.64705 25.2901 6.60589 25.3019 6.5618C25.3166 6.51476 25.3254 6.46771 25.3313 6.42067C25.3342 6.40009 25.343 6.37951 25.343 6.35893V2.96908C25.343 2.12823 26.028 1.44324 26.8689 1.44324H33.1194C33.9602 1.44324 34.6452 2.12827 34.6452 2.96908V6.35893C34.6452 6.38245 34.657 6.40009 34.657 6.42067C34.6628 6.47065 34.6717 6.51476 34.6864 6.5618C34.6981 6.6059 34.7128 6.64705 34.7334 6.68527C34.754 6.72643 34.7805 6.76171 34.8099 6.797C34.8393 6.83228 34.8687 6.86462 34.9039 6.89696C34.9392 6.92636 34.9745 6.94988 35.0157 6.97046C35.0568 6.99398 35.1009 7.01456 35.148 7.02926C35.1685 7.03514 35.1832 7.04984 35.2068 7.05572C37.8087 7.64372 40.2754 8.66683 42.5363 10.0957C42.5598 10.1104 42.5892 10.1193 42.6127 10.131C42.6333 10.1428 42.6539 10.1516 42.6774 10.1604C42.7568 10.1898 42.8361 10.2075 42.9155 10.2075C42.9978 10.2075 43.0772 10.1898 43.1566 10.1604C43.1742 10.1545 43.1919 10.1487 43.2095 10.1398C43.286 10.1075 43.3565 10.0605 43.4153 10.0017C43.4183 9.99872 43.4212 9.99872 43.4241 9.99578L45.8232 7.59671C46.4171 7.00283 47.3844 7.00283 47.9812 7.59671L52.403 12.0185C52.6882 12.3037 52.847 12.6888 52.847 13.0975C52.847 13.5062 52.6882 13.8884 52.403 14.1765L50.0039 16.5756C49.9892 16.5903 49.9834 16.6109 49.9687 16.6285C49.9363 16.6667 49.9128 16.7049 49.8893 16.749C49.8687 16.7902 49.8481 16.8284 49.8364 16.8725C49.8217 16.9166 49.8158 16.9607 49.8099 17.0048C49.804 17.0519 49.8011 17.093 49.807 17.1401C49.8099 17.1842 49.8217 17.2283 49.8334 17.2724C49.8452 17.3194 49.8628 17.3635 49.8863 17.4076C49.8952 17.4282 49.8981 17.4488 49.9099 17.4664C51.3387 19.7273 52.3618 22.1939 52.9499 24.7988C52.9558 24.8224 52.9705 24.8429 52.9763 24.8665C52.9881 24.9017 52.9999 24.9341 53.0175 24.9664C53.041 25.0135 53.0704 25.0576 53.1057 25.0958C53.1263 25.1222 53.1469 25.1458 53.1704 25.1693C53.2145 25.2075 53.2615 25.2369 53.3115 25.2634C53.338 25.2781 53.3586 25.2957 53.3879 25.3045C53.4703 25.3369 53.5555 25.3575 53.6467 25.3575H53.6496H57.0365C57.8774 25.3575 58.5624 26.0425 58.5624 26.8833V33.1338L58.5653 33.125ZM25.3427 18.848C23.8903 19.4537 22.582 20.3328 21.4589 21.4558C16.749 26.1657 16.749 33.8301 21.4589 38.5432C22.2791 39.3634 23.2082 40.0602 24.2167 40.61C24.5636 40.8011 24.6929 41.2362 24.5018 41.5832C24.3725 41.8213 24.1255 41.9565 23.8727 41.9565C23.758 41.9565 23.6375 41.9271 23.5287 41.8683C22.3997 41.2509 21.3619 40.4747 20.4416 39.5546C15.1731 34.286 15.1731 25.7096 20.4416 20.4388C21.7 19.1805 23.1612 18.2014 24.787 17.5223C25.1515 17.3694 25.572 17.5429 25.7248 17.9075C25.8777 18.272 25.7043 18.6925 25.3397 18.8453L25.3427 18.848ZM39.561 20.4415C44.8295 25.7101 44.8295 34.2865 39.561 39.5573C38.6496 40.4716 37.6176 41.2449 36.4945 41.8593C36.3857 41.9181 36.2681 41.9475 36.1505 41.9475C35.8977 41.9475 35.6507 41.8123 35.5214 41.5741C35.3303 41.2272 35.4596 40.7921 35.8066 40.601C36.8091 40.0512 37.7323 39.3603 38.5466 38.5429C43.2566 33.833 43.2566 26.1686 38.5466 21.4556C37.5088 20.4177 36.3092 19.5857 34.9804 18.986C34.6188 18.8243 34.46 18.398 34.6217 18.0364C34.7834 17.6747 35.2097 17.516 35.5713 17.6777C37.0561 18.348 38.3967 19.2771 39.5609 20.4384L39.561 20.4415ZM31.5257 21.1707H28.7885C27.1127 21.1707 25.7485 22.5348 25.7485 24.2107V46.0871C25.7485 47.763 27.1127 49.1271 28.7885 49.1271H31.5257C33.2015 49.1271 34.5657 47.763 34.5657 46.0871V24.2107C34.5657 22.5348 33.2015 21.1707 31.5257 21.1707ZM33.1339 46.087C33.1339 46.972 32.4136 47.6952 31.5257 47.6952H28.7885C27.9036 47.6952 27.1804 46.9749 27.1804 46.087V24.2106C27.1804 23.3256 27.9007 22.6024 28.7885 22.6024H31.5257C32.4107 22.6024 33.1339 23.3227 33.1339 24.2106V46.087ZM30.0116 19.0535H30.2997C32.6517 19.0535 34.5657 17.1395 34.5657 14.7875C34.5657 12.4354 32.6517 10.5214 30.2997 10.5214H30.0116C27.6596 10.5214 25.7456 12.4354 25.7456 14.7875C25.7456 17.1395 27.6596 19.0535 30.0116 19.0535ZM30.0116 11.9562H30.2997C31.8609 11.9562 33.1309 13.2263 33.1309 14.7875C33.1309 16.3486 31.8609 17.6187 30.2997 17.6187H30.0116C28.4505 17.6187 27.1804 16.3486 27.1804 14.7875C27.1804 13.2263 28.4505 11.9562 30.0116 11.9562Z" fill="white"/>
</svg>
