<svg width="60" height="60" viewBox="0 0 60 60" fill="none" xmlns="http://www.w3.org/2000/svg">
<path d="M29.2341 4.26468L32.7777 7.80828C33.1412 8.17173 33.6863 8.17173 34.0498 7.80828C34.4132 7.44484 34.4132 6.89967 34.0498 6.53622L32.1417 4.62813C43.772 5.71847 53.4033 14.7138 55.0388 26.344C55.1296 26.7983 55.4931 27.1618 55.9474 27.1618H56.0383C56.4926 27.0709 56.856 26.6166 56.7652 26.1623C55.0388 13.896 45.1349 4.35555 33.0503 2.99262L35.3218 1.81142C35.7761 1.53884 35.9579 0.993669 35.6853 0.539361C35.5036 -0.0058076 34.9584 -0.0966691 34.5041 0.085054L29.5067 2.8109C28.9615 3.08348 28.8707 3.81038 29.2341 4.26468Z" fill="white"/>
<path d="M59.7638 33.4314L56.9471 29.4335C56.6745 28.9792 55.9476 28.8883 55.5842 29.3426L52.0406 32.8862C51.6771 33.2497 51.6771 33.7948 52.0406 34.1583C52.404 34.5217 52.9492 34.5217 53.3126 34.1583L55.2207 32.2502C54.1304 43.9713 45.1351 53.6027 33.4139 55.2382C32.9596 55.329 32.5962 55.7833 32.5962 56.2376C32.6871 56.7828 33.1414 57.0554 33.5957 57.0554C46.1346 55.329 55.7659 45.0617 56.9471 32.6136L58.31 34.4309C58.5826 34.7943 59.2186 34.8852 59.5821 34.6126C59.9455 34.4309 60.0364 33.8857 59.7638 33.4314Z" fill="white"/>
<path d="M30.5971 55.7831L26.5992 51.7852C26.2358 51.4217 25.6906 51.4217 25.3272 51.7852C24.9637 52.1486 24.9637 52.6938 25.3272 53.0572L27.5987 55.3288C16.1502 54.3293 6.6097 45.4249 4.88333 33.8854C4.79247 33.4311 4.33816 33.0677 3.88385 33.1585C3.42955 33.2494 3.0661 33.7037 3.15696 34.158C4.97419 46.2426 14.7872 55.6013 26.5992 57.146L24.3277 58.3272C23.8734 58.5089 23.6917 59.0541 23.9642 59.5084C24.146 59.9627 24.6911 60.1444 25.1454 59.8718L30.4154 57.2368C30.8697 56.9643 30.9606 56.2374 30.5971 55.7831Z" fill="white"/>
<path d="M4.33818 30.7056L8.0635 26.9803C8.42695 26.6169 8.42695 26.0717 8.0635 25.7083C7.70006 25.3448 7.15489 25.3448 6.79144 25.7083L4.70163 27.7981C5.70111 16.3495 14.2421 6.89992 25.6906 4.99183C26.1449 4.90097 26.5084 4.44666 26.4175 3.90149C26.3267 3.35632 25.8724 2.99288 25.4181 3.08374C13.1518 5.17355 4.0656 15.0775 2.8844 27.2529L1.61234 25.3448C1.33975 24.8905 0.794584 24.7996 0.340277 25.0722C-0.0231693 25.3448 -0.114031 25.9808 0.158554 26.3443L2.8844 30.5239C3.24784 30.9782 3.88388 31.0691 4.33818 30.7056Z" fill="white"/>
<path d="M42.9543 21.529C44.1355 21.529 45.3167 21.0747 46.1345 20.1661C47.8609 18.4397 47.8609 15.5322 46.1345 13.8058C45.3167 12.988 44.1355 12.4429 42.9543 12.4429C41.7731 12.4429 40.5919 12.8972 39.7742 13.8058C38.2295 15.3504 38.0478 17.7128 39.229 19.4392L34.6859 23.9823C31.9601 21.8016 28.1439 21.8016 25.4181 23.9823L20.875 19.4392C22.0562 17.7128 21.8745 15.3504 20.3298 13.8058C18.6035 12.0794 15.6959 12.0794 13.9695 13.8058C12.2432 15.5322 12.2432 18.4397 13.9695 20.1661C15.5142 21.7107 17.8766 21.8925 19.6029 20.7113L24.146 25.2543C22.0562 27.9802 22.0562 31.7964 24.146 34.5222L19.6029 39.0653C17.8766 37.8841 15.5142 38.0658 13.9695 39.6105C12.2432 41.3368 12.2432 44.2444 13.9695 45.9708C15.6959 47.6971 18.6035 47.6971 20.3298 45.9708C21.8745 44.4261 22.0562 42.0637 20.875 40.3374L25.4181 35.7943C28.1439 37.975 31.9601 37.975 34.6859 35.7943L39.229 40.3374C38.0478 42.0637 38.2295 44.4261 39.7742 45.9708C41.5006 47.6971 44.4081 47.6971 46.1345 45.9708C47.8609 44.2444 47.8609 41.3368 46.1345 39.6105C44.5898 38.0658 42.2274 37.8841 40.5011 39.0653L35.958 34.5222C38.0478 31.7964 38.0478 27.9802 35.958 25.2543L40.5011 20.7113C41.1371 21.2564 42.0457 21.529 42.9543 21.529ZM41.0463 15.1687C41.5914 14.6235 42.2275 14.351 42.9543 14.351C43.6812 14.351 44.3173 14.6235 44.8624 15.1687C45.9528 16.2591 45.9528 17.8946 44.8624 18.9849C43.863 19.9844 42.0457 19.9844 41.0463 18.9849C39.9559 17.8946 39.9559 16.1682 41.0463 15.1687ZM15.1507 18.894C14.0604 17.8037 14.0604 16.1682 15.1507 15.0779C16.2411 13.9875 17.8766 13.9875 18.9669 15.0779C20.0572 16.1682 20.0572 17.8037 18.9669 18.894C17.8766 19.8935 16.1502 19.8935 15.1507 18.894ZM18.876 44.7896C17.8766 45.789 16.0593 45.789 15.0599 44.7896C13.9695 43.6992 13.9695 42.0637 15.0599 40.9734C16.1502 39.883 17.7857 39.883 18.876 40.9734C19.9664 42.0637 19.9664 43.7901 18.876 44.7896ZM25.8724 34.0679C23.6008 31.7964 23.6008 28.2528 25.8724 25.9812C26.9627 24.8909 28.4165 24.3457 29.9611 24.3457C31.5058 24.3457 32.9596 24.9818 34.0499 25.9812C36.3215 28.2528 36.3215 31.7964 34.0499 34.0679C32.9596 35.1582 31.5058 35.7034 29.9611 35.7034C28.4165 35.7034 26.9627 35.0674 25.8724 34.0679ZM44.7716 41.0642C45.8619 42.1546 45.8619 43.7901 44.7716 44.8804C43.7721 45.8799 41.9549 45.8799 40.9554 44.8804C39.865 43.7901 39.865 42.1546 40.9554 41.0642C42.0457 39.9739 43.7721 39.9739 44.7716 41.0642Z" fill="white"/>
</svg>
