<svg width="60" height="60" viewBox="0 0 60 60" fill="none" xmlns="http://www.w3.org/2000/svg">
<path d="M36.2013 21.3922C36.2013 17.9733 33.4189 15.1909 30 15.1909C26.5811 15.1909 23.7987 17.9733 23.7987 21.3922C23.7987 24.8111 26.5811 27.5935 30 27.5935C33.4189 27.5935 36.2013 24.8111 36.2013 21.3922ZM25.7446 21.3922C25.7446 19.0402 27.6541 17.1307 30.0061 17.1307C32.352 17.1307 34.2615 19.0402 34.2615 21.3922C34.2615 23.7381 32.352 25.6476 30.0061 25.6476C27.6541 25.6476 25.7446 23.7381 25.7446 21.3922ZM19.4585 36.5892V41.5417C19.4585 43.3482 20.8769 44.8151 22.6228 44.8151H37.3712C39.117 44.8151 40.5355 43.3482 40.5355 41.5417V36.5892C40.5355 32.0125 36.965 28.2845 32.5763 28.2845H27.4177C23.035 28.2845 19.4585 32.0125 19.4585 36.5892ZM27.4237 30.2304H32.5823C35.8982 30.2304 38.6017 33.0855 38.6017 36.5892V41.5417C38.6017 42.2752 38.0562 42.8693 37.3772 42.8693H22.6288C21.956 42.8693 21.4043 42.2752 21.4043 41.5417V36.5892C21.4043 33.0855 24.1018 30.2304 27.4237 30.2304ZM55.3506 34.1645C54.4837 39.4868 51.9984 44.3302 48.1612 48.1612C44.3302 51.9923 39.4868 54.4777 34.1645 55.3506C34.1099 55.3566 34.0614 55.3627 34.0069 55.3627C33.5401 55.3627 33.1279 55.0232 33.0491 54.5444C32.9642 54.017 33.3219 53.5138 33.8493 53.429C43.918 51.7862 51.7862 43.918 53.429 33.8493C53.5138 33.3219 54.017 32.9582 54.5443 33.0491C55.0778 33.134 55.4354 33.631 55.3506 34.1645ZM4.64942 25.8355C5.51627 20.5132 8.00162 15.6698 11.8388 11.8388C15.6698 8.00768 20.5132 5.52233 25.8355 4.64942C26.3629 4.56456 26.866 4.92221 26.9509 5.44959C27.0358 5.97697 26.6781 6.4801 26.1507 6.56496C16.082 8.20772 8.21378 16.076 6.57102 26.1447C6.49222 26.6296 6.08002 26.9691 5.61326 26.9691C5.5587 26.9691 5.5102 26.963 5.45565 26.957C4.92221 26.866 4.56456 26.369 4.64942 25.8355ZM33.0491 5.45565C33.134 4.92827 33.6371 4.56456 34.1645 4.65549C39.4868 5.52233 44.3302 8.00768 48.1612 11.8448C51.9923 15.6759 54.4777 20.5193 55.3506 25.8416C55.4354 26.369 55.0778 26.8721 54.5504 26.957C54.4959 26.963 54.4413 26.9691 54.3867 26.9691C53.92 26.9691 53.5078 26.6296 53.429 26.1507C51.7862 16.082 43.918 8.21378 33.8493 6.57102C33.3219 6.48616 32.9582 5.98303 33.0491 5.45565ZM26.9509 54.5444C26.8721 55.0232 26.4599 55.3627 25.9931 55.3627C25.9386 55.3627 25.8901 55.3566 25.8355 55.3506C20.5132 54.4837 15.6698 51.9984 11.8388 48.1612C8.00768 44.3302 5.52233 39.4868 4.64942 34.1645C4.56456 33.6371 4.92221 33.134 5.44959 33.0491C5.97696 32.9642 6.4801 33.3219 6.56496 33.8493C8.20772 43.918 16.076 51.7862 26.1447 53.429C26.6781 53.5138 27.0418 54.017 26.9509 54.5444ZM29.0301 9.70499V0.969893C29.0301 0.43039 29.4666 0 30 0C30.5395 0 30.9699 0.436452 30.9699 0.969893V9.70499C30.9699 10.2445 30.5334 10.6749 30 10.6749C29.4666 10.6749 29.0301 10.2384 29.0301 9.70499ZM30.976 50.295V59.0301C30.976 59.5696 30.5395 60 30.0061 60C29.4666 60 29.0362 59.5635 29.0362 59.0301V50.295C29.0362 49.7555 29.4726 49.3251 30.0061 49.3251C30.5395 49.3251 30.976 49.7616 30.976 50.295ZM60.0061 30C60.0061 30.5395 59.5696 30.9699 59.0362 30.9699H50.295C49.7555 30.9699 49.3251 30.5334 49.3251 30C49.3251 29.4605 49.7616 29.0301 50.295 29.0301H59.0301C59.5696 29.0301 60.0061 29.4666 60.0061 30ZM9.70499 30.976H0.969893C0.43039 30.976 0 30.5395 0 30.0061C0 29.4666 0.436452 29.0362 0.969893 29.0362H9.70499C10.2445 29.0362 10.6749 29.4726 10.6749 30.0061C10.6749 30.5395 10.2384 30.976 9.70499 30.976Z" fill="white"/>
</svg>
